# xmcd
#
# Track frame offsets: 
#        150
#        26468
#        54994
#        91575
#        122185
#        178788
#
# Disc length: 3123 seconds
#
# Revision: 0
# Processed by: cddbd v1.5.2PL0 Copyright (c) Steve Scherf et al.
# Submitted via: ExactAudioCopyFreeDBPlugin 1.0
#
DISCID=410c3106
DTITLE=Layla Zoe - Retrospective Tour 2019 - CD 2
DYEAR=2020
DGENRE=Blues
TTITLE0=Backstage queen
TTITLE1=Weakness
TTITLE2=Bitch with the head of red
TTITLE3=Ghost Train
TTITLE4=Hippie Chick
TTITLE5=I shall be released
EXTD=
EXTT0=
EXTT1=
EXTT2=
EXTT3=
EXTT4=
EXTT5=
PLAYORDER=
